<?xml version="1.0" encoding="utf-8"?>
<!-- Generator: Adobe Illustrator 16.0.0, SVG Export Plug-In . SVG Version: 6.00 Build 0)  -->
<!DOCTYPE svg PUBLIC "-//W3C//DTD SVG 1.1//EN" "http://www.w3.org/Graphics/SVG/1.1/DTD/svg11.dtd">
<svg version="1.1" id="Layer_1" xmlns="http://www.w3.org/2000/svg" xmlns:xlink="http://www.w3.org/1999/xlink" x="0px" y="0px"
	 width="110.313px" height="110.313px" viewBox="0 0 110.313 110.313" enable-background="new 0 0 110.313 110.313"
	 xml:space="preserve">
<path fill="#006AA3" d="M110.313,55.156c0,30.463-24.694,55.157-55.156,55.157C24.695,110.313,0,85.619,0,55.156S24.695,0,55.157,0
	C85.619,0,110.313,24.693,110.313,55.156"/>
<path fill="#FFFFFF" d="M12.846,36.205v46.59H23.69V65.478h11.104l9.061-9.65H23.69V37.261h30.581v18.654l-8.98,9.563h8.98v17.317
	h10.846V65.478h18.121c7.859,0,14.23-6.371,14.23-14.23V36.205c0-4.797-3.888-8.687-8.686-8.687H21.532
	C16.734,27.519,12.846,31.408,12.846,36.205 M86.624,48.491c0,4.053-3.285,7.336-7.336,7.336H65.117V37.261h21.507V48.491z"/>
</svg>
